<svg xmlns="http://www.w3.org/2000/svg" xmlns:xlink="http://www.w3.org/1999/xlink" width="500" zoomAndPan="magnify" viewBox="0 0 375 374.999991" height="500" preserveAspectRatio="xMidYMid meet" version="1.0"><defs><g/><clipPath id="7de0764e5d"><path d="M 59 162 L 91 162 L 91 194 L 59 194 Z M 59 162 " clip-rule="nonzero"/></clipPath><clipPath id="c5cb78d4e9"><path d="M 90.53125 177.628906 C 90.53125 178.640625 90.433594 179.644531 90.234375 180.640625 C 90.035156 181.632812 89.742188 182.597656 89.355469 183.535156 C 88.964844 184.472656 88.488281 185.363281 87.925781 186.207031 C 87.363281 187.046875 86.722656 187.828125 86.003906 188.546875 C 85.285156 189.261719 84.503906 189.902344 83.660156 190.464844 C 82.816406 191.027344 81.925781 191.503906 80.988281 191.894531 C 80.050781 192.28125 79.085938 192.574219 78.089844 192.769531 C 77.09375 192.96875 76.089844 193.066406 75.074219 193.066406 C 74.058594 193.066406 73.054688 192.96875 72.058594 192.769531 C 71.0625 192.574219 70.097656 192.28125 69.160156 191.894531 C 68.222656 191.503906 67.332031 191.027344 66.488281 190.464844 C 65.644531 189.902344 64.863281 189.261719 64.144531 188.546875 C 63.425781 187.828125 62.785156 187.046875 62.222656 186.207031 C 61.660156 185.363281 61.183594 184.472656 60.792969 183.535156 C 60.40625 182.597656 60.113281 181.632812 59.914062 180.640625 C 59.71875 179.644531 59.617188 178.640625 59.617188 177.628906 C 59.617188 176.613281 59.71875 175.609375 59.914062 174.613281 C 60.113281 173.621094 60.40625 172.65625 60.792969 171.71875 C 61.183594 170.78125 61.660156 169.890625 62.222656 169.050781 C 62.785156 168.207031 63.425781 167.425781 64.144531 166.710938 C 64.863281 165.992188 65.644531 165.351562 66.488281 164.789062 C 67.332031 164.226562 68.222656 163.75 69.160156 163.363281 C 70.097656 162.972656 71.0625 162.679688 72.058594 162.484375 C 73.054688 162.285156 74.058594 162.1875 75.074219 162.1875 C 76.089844 162.1875 77.09375 162.285156 78.089844 162.484375 C 79.085938 162.679688 80.050781 162.972656 80.988281 163.363281 C 81.925781 163.75 82.816406 164.226562 83.660156 164.789062 C 84.503906 165.351562 85.285156 165.992188 86.003906 166.710938 C 86.722656 167.425781 87.363281 168.207031 87.925781 169.050781 C 88.488281 169.890625 88.964844 170.78125 89.355469 171.71875 C 89.742188 172.65625 90.035156 173.621094 90.234375 174.613281 C 90.433594 175.609375 90.53125 176.613281 90.53125 177.628906 Z M 90.53125 177.628906 " clip-rule="nonzero"/></clipPath><linearGradient x1="1.337396" gradientTransform="matrix(1.144922, 0, 0, 1.14375, 55.038577, 155.324236)" y1="25.255009" x2="33.784698" gradientUnits="userSpaceOnUse" y2="14.100147" id="bc29000889"><stop stop-opacity="1" stop-color="rgb(97.299194%, 61.999512%, 0%)" offset="0"/><stop stop-opacity="1" stop-color="rgb(97.299194%, 61.999512%, 0%)" offset="0.0625"/><stop stop-opacity="1" stop-color="rgb(97.299194%, 61.999512%, 0%)" offset="0.09375"/><stop stop-opacity="1" stop-color="rgb(97.254944%, 61.837769%, 0.151062%)" offset="0.109375"/><stop stop-opacity="1" stop-color="rgb(97.160339%, 61.488342%, 0.4776%)" offset="0.117187"/><stop stop-opacity="1" stop-color="rgb(97.059631%, 61.112976%, 0.828552%)" offset="0.125"/><stop stop-opacity="1" stop-color="rgb(96.957397%, 60.73761%, 1.179504%)" offset="0.132812"/><stop stop-opacity="1" stop-color="rgb(96.855164%, 60.362244%, 1.530457%)" offset="0.140625"/><stop stop-opacity="1" stop-color="rgb(96.754456%, 59.986877%, 1.882935%)" offset="0.148438"/><stop stop-opacity="1" stop-color="rgb(96.652222%, 59.611511%, 2.233887%)" offset="0.15625"/><stop stop-opacity="1" stop-color="rgb(96.551514%, 59.236145%, 2.584839%)" offset="0.164062"/><stop stop-opacity="1" stop-color="rgb(96.44928%, 58.860779%, 2.935791%)" offset="0.171875"/><stop stop-opacity="1" stop-color="rgb(96.347046%, 58.485413%, 3.288269%)" offset="0.179687"/><stop stop-opacity="1" stop-color="rgb(96.246338%, 58.110046%, 3.639221%)" offset="0.1875"/><stop stop-opacity="1" stop-color="rgb(96.144104%, 57.73468%, 3.990173%)" offset="0.195312"/><stop stop-opacity="1" stop-color="rgb(96.043396%, 57.359314%, 4.341125%)" offset="0.203125"/><stop stop-opacity="1" stop-color="rgb(95.941162%, 56.982422%, 4.693604%)" offset="0.210937"/><stop stop-opacity="1" stop-color="rgb(95.838928%, 56.607056%, 5.044556%)" offset="0.21875"/><stop stop-opacity="1" stop-color="rgb(95.73822%, 56.231689%, 5.395508%)" offset="0.226562"/><stop stop-opacity="1" stop-color="rgb(95.635986%, 55.856323%, 5.74646%)" offset="0.234375"/><stop stop-opacity="1" stop-color="rgb(95.535278%, 55.480957%, 6.098938%)" offset="0.242188"/><stop stop-opacity="1" stop-color="rgb(95.433044%, 55.105591%, 6.44989%)" offset="0.25"/><stop stop-opacity="1" stop-color="rgb(95.332336%, 54.730225%, 6.800842%)" offset="0.255833"/><stop stop-opacity="1" stop-color="rgb(95.281982%, 54.542542%, 6.976318%)" offset="0.257812"/><stop stop-opacity="1" stop-color="rgb(95.230103%, 54.354858%, 7.151794%)" offset="0.265625"/><stop stop-opacity="1" stop-color="rgb(95.127869%, 53.979492%, 7.502747%)" offset="0.273438"/><stop stop-opacity="1" stop-color="rgb(95.027161%, 53.604126%, 7.855225%)" offset="0.28125"/><stop stop-opacity="1" stop-color="rgb(94.924927%, 53.22876%, 8.206177%)" offset="0.289062"/><stop stop-opacity="1" stop-color="rgb(94.824219%, 52.853394%, 8.557129%)" offset="0.296875"/><stop stop-opacity="1" stop-color="rgb(94.721985%, 52.478027%, 8.908081%)" offset="0.304687"/><stop stop-opacity="1" stop-color="rgb(94.619751%, 52.102661%, 9.260559%)" offset="0.3125"/><stop stop-opacity="1" stop-color="rgb(94.519043%, 51.727295%, 9.611511%)" offset="0.320312"/><stop stop-opacity="1" stop-color="rgb(94.416809%, 51.351929%, 9.962463%)" offset="0.328125"/><stop stop-opacity="1" stop-color="rgb(94.316101%, 50.976562%, 10.313416%)" offset="0.335938"/><stop stop-opacity="1" stop-color="rgb(94.213867%, 50.601196%, 10.665894%)" offset="0.34375"/><stop stop-opacity="1" stop-color="rgb(94.111633%, 50.22583%, 11.016846%)" offset="0.351562"/><stop stop-opacity="1" stop-color="rgb(94.010925%, 49.850464%, 11.367798%)" offset="0.359375"/><stop stop-opacity="1" stop-color="rgb(93.908691%, 49.475098%, 11.71875%)" offset="0.367188"/><stop stop-opacity="1" stop-color="rgb(93.807983%, 49.099731%, 12.071228%)" offset="0.375"/><stop stop-opacity="1" stop-color="rgb(93.70575%, 48.724365%, 12.42218%)" offset="0.382812"/><stop stop-opacity="1" stop-color="rgb(93.605042%, 48.348999%, 12.773132%)" offset="0.390625"/><stop stop-opacity="1" stop-color="rgb(93.502808%, 47.973633%, 13.124084%)" offset="0.398437"/><stop stop-opacity="1" stop-color="rgb(93.400574%, 47.598267%, 13.475037%)" offset="0.40625"/><stop stop-opacity="1" stop-color="rgb(93.299866%, 47.2229%, 13.827515%)" offset="0.414062"/><stop stop-opacity="1" stop-color="rgb(93.197632%, 46.847534%, 14.178467%)" offset="0.421875"/><stop stop-opacity="1" stop-color="rgb(93.096924%, 46.470642%, 14.529419%)" offset="0.429688"/><stop stop-opacity="1" stop-color="rgb(92.99469%, 46.095276%, 14.880371%)" offset="0.4375"/><stop stop-opacity="1" stop-color="rgb(92.892456%, 45.71991%, 15.232849%)" offset="0.445312"/><stop stop-opacity="1" stop-color="rgb(92.791748%, 45.344543%, 15.583801%)" offset="0.453125"/><stop stop-opacity="1" stop-color="rgb(92.689514%, 44.969177%, 15.934753%)" offset="0.460937"/><stop stop-opacity="1" stop-color="rgb(92.588806%, 44.593811%, 16.285706%)" offset="0.46875"/><stop stop-opacity="1" stop-color="rgb(92.486572%, 44.218445%, 16.638184%)" offset="0.476562"/><stop stop-opacity="1" stop-color="rgb(92.384338%, 43.843079%, 16.989136%)" offset="0.484375"/><stop stop-opacity="1" stop-color="rgb(92.28363%, 43.467712%, 17.340088%)" offset="0.492188"/><stop stop-opacity="1" stop-color="rgb(92.181396%, 43.092346%, 17.69104%)" offset="0.5"/><stop stop-opacity="1" stop-color="rgb(92.080688%, 42.71698%, 18.043518%)" offset="0.507812"/><stop stop-opacity="1" stop-color="rgb(91.978455%, 42.341614%, 18.39447%)" offset="0.515625"/><stop stop-opacity="1" stop-color="rgb(91.877747%, 41.966248%, 18.745422%)" offset="0.523438"/><stop stop-opacity="1" stop-color="rgb(91.775513%, 41.590881%, 19.096375%)" offset="0.53125"/><stop stop-opacity="1" stop-color="rgb(91.673279%, 41.215515%, 19.447327%)" offset="0.539062"/><stop stop-opacity="1" stop-color="rgb(91.572571%, 40.840149%, 19.799805%)" offset="0.546875"/><stop stop-opacity="1" stop-color="rgb(91.470337%, 40.464783%, 20.150757%)" offset="0.554688"/><stop stop-opacity="1" stop-color="rgb(91.369629%, 40.089417%, 20.501709%)" offset="0.5625"/><stop stop-opacity="1" stop-color="rgb(91.267395%, 39.71405%, 20.852661%)" offset="0.570313"/><stop stop-opacity="1" stop-color="rgb(91.165161%, 39.338684%, 21.205139%)" offset="0.578125"/><stop stop-opacity="1" stop-color="rgb(91.064453%, 38.963318%, 21.556091%)" offset="0.585938"/><stop stop-opacity="1" stop-color="rgb(90.962219%, 38.587952%, 21.907043%)" offset="0.59375"/><stop stop-opacity="1" stop-color="rgb(90.861511%, 38.212585%, 22.257996%)" offset="0.601563"/><stop stop-opacity="1" stop-color="rgb(90.759277%, 37.837219%, 22.610474%)" offset="0.609375"/><stop stop-opacity="1" stop-color="rgb(90.657043%, 37.461853%, 22.961426%)" offset="0.617187"/><stop stop-opacity="1" stop-color="rgb(90.556335%, 37.086487%, 23.312378%)" offset="0.625"/><stop stop-opacity="1" stop-color="rgb(90.454102%, 36.711121%, 23.66333%)" offset="0.632812"/><stop stop-opacity="1" stop-color="rgb(90.353394%, 36.335754%, 24.015808%)" offset="0.640625"/><stop stop-opacity="1" stop-color="rgb(90.25116%, 35.958862%, 24.36676%)" offset="0.648438"/><stop stop-opacity="1" stop-color="rgb(90.150452%, 35.583496%, 24.717712%)" offset="0.65625"/><stop stop-opacity="1" stop-color="rgb(90.048218%, 35.20813%, 25.068665%)" offset="0.664062"/><stop stop-opacity="1" stop-color="rgb(89.945984%, 34.832764%, 25.419617%)" offset="0.671875"/><stop stop-opacity="1" stop-color="rgb(89.845276%, 34.457397%, 25.772095%)" offset="0.679688"/><stop stop-opacity="1" stop-color="rgb(89.743042%, 34.082031%, 26.123047%)" offset="0.6875"/><stop stop-opacity="1" stop-color="rgb(89.642334%, 33.706665%, 26.473999%)" offset="0.695312"/><stop stop-opacity="1" stop-color="rgb(89.5401%, 33.331299%, 26.824951%)" offset="0.703125"/><stop stop-opacity="1" stop-color="rgb(89.437866%, 32.955933%, 27.177429%)" offset="0.710938"/><stop stop-opacity="1" stop-color="rgb(89.337158%, 32.580566%, 27.528381%)" offset="0.71875"/><stop stop-opacity="1" stop-color="rgb(89.234924%, 32.2052%, 27.879333%)" offset="0.726562"/><stop stop-opacity="1" stop-color="rgb(89.134216%, 31.829834%, 28.230286%)" offset="0.734375"/><stop stop-opacity="1" stop-color="rgb(89.031982%, 31.454468%, 28.582764%)" offset="0.742188"/><stop stop-opacity="1" stop-color="rgb(88.931274%, 31.079102%, 28.933716%)" offset="0.744167"/><stop stop-opacity="1" stop-color="rgb(88.88092%, 30.891418%, 29.109192%)" offset="0.75"/><stop stop-opacity="1" stop-color="rgb(88.829041%, 30.703735%, 29.284668%)" offset="0.757813"/><stop stop-opacity="1" stop-color="rgb(88.726807%, 30.328369%, 29.63562%)" offset="0.765625"/><stop stop-opacity="1" stop-color="rgb(88.626099%, 29.953003%, 29.988098%)" offset="0.773438"/><stop stop-opacity="1" stop-color="rgb(88.523865%, 29.577637%, 30.33905%)" offset="0.78125"/><stop stop-opacity="1" stop-color="rgb(88.423157%, 29.202271%, 30.690002%)" offset="0.789063"/><stop stop-opacity="1" stop-color="rgb(88.320923%, 28.826904%, 31.040955%)" offset="0.796875"/><stop stop-opacity="1" stop-color="rgb(88.218689%, 28.451538%, 31.391907%)" offset="0.804687"/><stop stop-opacity="1" stop-color="rgb(88.117981%, 28.076172%, 31.744385%)" offset="0.8125"/><stop stop-opacity="1" stop-color="rgb(88.015747%, 27.700806%, 32.095337%)" offset="0.820312"/><stop stop-opacity="1" stop-color="rgb(87.915039%, 27.325439%, 32.446289%)" offset="0.828125"/><stop stop-opacity="1" stop-color="rgb(87.812805%, 26.950073%, 32.797241%)" offset="0.835937"/><stop stop-opacity="1" stop-color="rgb(87.710571%, 26.574707%, 33.149719%)" offset="0.84375"/><stop stop-opacity="1" stop-color="rgb(87.609863%, 26.199341%, 33.500671%)" offset="0.851562"/><stop stop-opacity="1" stop-color="rgb(87.507629%, 25.823975%, 33.851624%)" offset="0.859375"/><stop stop-opacity="1" stop-color="rgb(87.406921%, 25.448608%, 34.202576%)" offset="0.867188"/><stop stop-opacity="1" stop-color="rgb(87.304688%, 25.071716%, 34.555054%)" offset="0.875"/><stop stop-opacity="1" stop-color="rgb(87.203979%, 24.69635%, 34.906006%)" offset="0.882812"/><stop stop-opacity="1" stop-color="rgb(87.101746%, 24.320984%, 35.256958%)" offset="0.890625"/><stop stop-opacity="1" stop-color="rgb(86.999512%, 23.945618%, 35.60791%)" offset="0.898438"/><stop stop-opacity="1" stop-color="rgb(86.898804%, 23.570251%, 35.958862%)" offset="0.90625"/><stop stop-opacity="1" stop-color="rgb(86.79657%, 23.194885%, 36.31134%)" offset="0.914062"/><stop stop-opacity="1" stop-color="rgb(86.695862%, 22.819519%, 36.662292%)" offset="0.921875"/><stop stop-opacity="1" stop-color="rgb(86.593628%, 22.444153%, 37.013245%)" offset="0.929688"/><stop stop-opacity="1" stop-color="rgb(86.491394%, 22.068787%, 37.364197%)" offset="0.9375"/><stop stop-opacity="1" stop-color="rgb(86.390686%, 21.69342%, 37.716675%)" offset="0.945312"/><stop stop-opacity="1" stop-color="rgb(86.288452%, 21.318054%, 38.067627%)" offset="0.953125"/><stop stop-opacity="1" stop-color="rgb(86.187744%, 20.942688%, 38.418579%)" offset="0.960938"/><stop stop-opacity="1" stop-color="rgb(86.08551%, 20.567322%, 38.769531%)" offset="0.96875"/><stop stop-opacity="1" stop-color="rgb(85.983276%, 20.191956%, 39.122009%)" offset="0.976563"/><stop stop-opacity="1" stop-color="rgb(85.882568%, 19.816589%, 39.472961%)" offset="0.984375"/><stop stop-opacity="1" stop-color="rgb(85.780334%, 19.441223%, 39.823914%)" offset="0.992187"/><stop stop-opacity="1" stop-color="rgb(85.679626%, 19.065857%, 40.174866%)" offset="1"/></linearGradient></defs><g clip-path="url(#7de0764e5d)"><g clip-path="url(#c5cb78d4e9)"><path fill="url(#bc29000889)" d="M 59.617188 162.1875 L 59.617188 193.066406 L 90.53125 193.066406 L 90.53125 162.1875 Z M 59.617188 162.1875 " fill-rule="nonzero"/></g></g><path fill="#ffffff" d="M 66.976562 172.636719 C 71.761719 171.4375 76.535156 170.246094 81.320312 169.050781 C 81.574219 170.019531 81.820312 170.980469 82.070312 171.949219 C 78.335938 172.886719 74.605469 173.816406 70.875 174.75 C 70.878906 174.757812 70.878906 174.761719 70.878906 174.769531 L 82.429688 174.769531 C 82.429688 174.808594 82.433594 174.84375 82.433594 174.878906 C 82.433594 177.382812 82.433594 179.890625 82.433594 182.398438 C 82.433594 183.796875 81.277344 184.984375 79.859375 185.050781 C 79.722656 185.054688 79.582031 185.058594 79.445312 185.058594 C 76.429688 185.0625 73.414062 185.0625 70.398438 185.058594 C 69.644531 185.058594 68.984375 184.808594 68.445312 184.289062 C 67.957031 183.816406 67.679688 183.238281 67.636719 182.558594 C 67.628906 182.425781 67.625 182.289062 67.625 182.152344 C 67.625 179.9375 67.625 177.71875 67.628906 175.503906 C 67.628906 175.273438 67.601562 175.050781 67.542969 174.828125 C 67.355469 174.125 67.175781 173.421875 66.996094 172.71875 C 66.988281 172.695312 66.984375 172.671875 66.976562 172.636719 Z M 68.324219 177.773438 L 68.324219 177.890625 C 68.324219 179.386719 68.324219 180.882812 68.328125 182.378906 C 68.328125 182.460938 68.332031 182.542969 68.347656 182.625 C 68.503906 183.660156 69.351562 184.375 70.414062 184.375 C 73.46875 184.375 76.519531 184.375 79.570312 184.375 C 79.65625 184.375 79.738281 184.371094 79.824219 184.363281 C 80.910156 184.285156 81.734375 183.414062 81.734375 182.339844 C 81.734375 180.863281 81.734375 179.382812 81.734375 177.90625 L 81.734375 177.773438 Z M 70.460938 175.457031 C 70.484375 175.496094 70.496094 175.519531 70.511719 175.542969 C 70.855469 176.027344 71.203125 176.515625 71.542969 177.003906 C 71.582031 177.058594 71.621094 177.082031 71.691406 177.082031 C 72.101562 177.078125 72.515625 177.082031 72.925781 177.078125 C 72.957031 177.078125 72.988281 177.074219 73.023438 177.074219 C 73.015625 177.054688 73.011719 177.042969 73.007812 177.035156 C 72.648438 176.527344 72.292969 176.015625 71.933594 175.511719 C 71.914062 175.480469 71.855469 175.460938 71.816406 175.460938 C 71.59375 175.457031 71.371094 175.457031 71.152344 175.457031 C 70.925781 175.457031 70.703125 175.457031 70.460938 175.457031 Z M 76.335938 177.082031 C 76.3125 177.039062 76.300781 177.015625 76.28125 176.992188 C 75.9375 176.503906 75.59375 176.015625 75.253906 175.527344 C 75.214844 175.472656 75.175781 175.457031 75.109375 175.457031 C 74.695312 175.460938 74.28125 175.457031 73.863281 175.457031 C 73.835938 175.457031 73.808594 175.460938 73.769531 175.464844 C 73.789062 175.492188 73.800781 175.511719 73.8125 175.527344 C 74.128906 175.976562 74.453125 176.421875 74.753906 176.878906 C 74.863281 177.042969 74.980469 177.09375 75.171875 177.085938 C 75.550781 177.070312 75.933594 177.082031 76.335938 177.082031 Z M 77.070312 175.457031 C 77.09375 175.496094 77.109375 175.519531 77.125 175.542969 C 77.46875 176.03125 77.8125 176.515625 78.15625 177.003906 C 78.195312 177.0625 78.234375 177.082031 78.304688 177.082031 C 78.714844 177.078125 79.121094 177.082031 79.527344 177.078125 C 79.558594 177.078125 79.59375 177.078125 79.632812 177.074219 C 79.621094 177.050781 79.617188 177.03125 79.605469 177.019531 C 79.253906 176.515625 78.902344 176.015625 78.542969 175.511719 C 78.523438 175.484375 78.46875 175.460938 78.429688 175.460938 C 78.191406 175.457031 77.957031 175.457031 77.71875 175.457031 C 77.507812 175.457031 77.300781 175.457031 77.070312 175.457031 Z M 79.191406 171.960938 C 79.167969 171.933594 79.160156 171.921875 79.148438 171.914062 C 78.679688 171.511719 78.207031 171.105469 77.734375 170.707031 C 77.710938 170.6875 77.664062 170.675781 77.632812 170.683594 C 77.207031 170.789062 76.785156 170.894531 76.363281 171 C 76.347656 171.003906 76.335938 171.011719 76.292969 171.027344 C 76.328125 171.050781 76.347656 171.058594 76.363281 171.074219 C 76.765625 171.417969 77.179688 171.753906 77.570312 172.109375 C 77.730469 172.257812 77.871094 172.308594 78.09375 172.242188 C 78.445312 172.128906 78.8125 172.054688 79.191406 171.960938 Z M 72.785156 173.5625 C 72.765625 173.539062 72.757812 173.527344 72.75 173.519531 C 72.285156 173.125 71.820312 172.730469 71.363281 172.332031 C 71.304688 172.285156 71.261719 172.277344 71.1875 172.292969 C 70.84375 172.382812 70.5 172.464844 70.15625 172.550781 C 70.074219 172.570312 69.996094 172.59375 69.898438 172.621094 C 70.007812 172.71875 70.105469 172.800781 70.203125 172.882812 C 70.578125 173.207031 70.953125 173.527344 71.328125 173.847656 C 71.363281 173.875 71.421875 173.898438 71.460938 173.890625 C 71.898438 173.785156 72.332031 173.675781 72.785156 173.5625 Z M 73.113281 171.8125 C 73.125 171.835938 73.125 171.84375 73.132812 171.847656 C 73.605469 172.253906 74.074219 172.660156 74.550781 173.0625 C 74.582031 173.089844 74.648438 173.09375 74.691406 173.082031 C 75.089844 172.988281 75.484375 172.886719 75.882812 172.789062 C 75.917969 172.78125 75.949219 172.769531 75.992188 172.753906 C 75.523438 172.351562 75.0625 171.964844 74.613281 171.566406 C 74.515625 171.484375 74.433594 171.46875 74.320312 171.507812 C 74.242188 171.539062 74.160156 171.550781 74.078125 171.570312 C 73.757812 171.652344 73.441406 171.730469 73.113281 171.8125 Z M 68.332031 177.074219 L 69.710938 177.074219 C 69.710938 177.0625 69.710938 177.050781 69.707031 177.046875 C 69.347656 176.53125 68.984375 176.015625 68.617188 175.5 C 68.605469 175.480469 68.574219 175.460938 68.550781 175.460938 C 68.480469 175.457031 68.40625 175.457031 68.332031 175.457031 Z M 68.230469 174.699219 C 68.6875 174.585938 69.128906 174.476562 69.601562 174.355469 C 69.5625 174.328125 69.539062 174.3125 69.523438 174.296875 C 69.085938 173.925781 68.652344 173.554688 68.214844 173.183594 C 68.070312 173.058594 68.015625 173.054688 67.832031 173.152344 C 67.964844 173.664062 68.097656 174.179688 68.230469 174.699219 Z M 80.375 175.460938 C 80.730469 175.96875 81.082031 176.453125 81.417969 176.949219 C 81.503906 177.074219 81.59375 177.105469 81.726562 177.066406 L 81.726562 175.460938 Z M 80.8125 169.886719 C 80.375 169.996094 79.949219 170.105469 79.523438 170.210938 L 79.515625 170.242188 C 79.535156 170.253906 79.554688 170.261719 79.570312 170.277344 C 80.003906 170.644531 80.441406 171.007812 80.867188 171.382812 C 80.976562 171.484375 81.074219 171.519531 81.214844 171.4375 C 81.082031 170.925781 80.949219 170.410156 80.8125 169.886719 Z M 80.8125 169.886719 " fill-opacity="1" fill-rule="nonzero"/><path fill="#ffffff" d="M 73.808594 179.085938 C 73.832031 179.097656 73.867188 179.109375 73.894531 179.125 C 74.816406 179.648438 75.734375 180.167969 76.652344 180.6875 C 76.820312 180.785156 76.988281 180.878906 77.152344 180.972656 C 77.277344 181.046875 77.28125 181.140625 77.152344 181.214844 C 76.21875 181.746094 75.28125 182.273438 74.347656 182.804688 C 74.199219 182.890625 74.046875 182.976562 73.894531 183.0625 C 73.765625 183.132812 73.679688 183.089844 73.679688 182.945312 C 73.679688 181.707031 73.679688 180.472656 73.679688 179.238281 C 73.679688 179.15625 73.703125 179.097656 73.808594 179.085938 Z M 73.808594 179.085938 " fill-opacity="1" fill-rule="nonzero"/><g fill="#da2f68" fill-opacity="1"><g transform="translate(95.89453, 186.890789)"><g><path d="M 12.25 -18.53125 L 12.25 0 L 1.640625 0 L 1.640625 -18.53125 Z M 24.3125 -12.03125 C 24.3125 -10.695312 23.976562 -9.535156 23.3125 -8.546875 C 22.65625 -7.566406 21.804688 -6.816406 20.765625 -6.296875 C 19.722656 -5.773438 18.65625 -5.515625 17.5625 -5.515625 L 13.8125 -5.515625 L 13.8125 -18.53125 L 17.203125 -18.53125 C 18.503906 -18.53125 19.695312 -18.25 20.78125 -17.6875 C 21.875 -17.132812 22.734375 -16.363281 23.359375 -15.375 C 23.992188 -14.394531 24.3125 -13.28125 24.3125 -12.03125 Z M 24.3125 -12.03125 "/></g></g></g><g fill="#da2f68" fill-opacity="1"><g transform="translate(120.347508, 186.890789)"><g><path d="M 4.9375 -18.65625 C 6.132812 -18.65625 7.085938 -18.457031 7.796875 -18.0625 C 8.503906 -17.675781 8.859375 -17.1875 8.859375 -16.59375 C 8.859375 -16.03125 8.507812 -15.5625 7.8125 -15.1875 C 7.125 -14.8125 6.222656 -14.625 5.109375 -14.625 C 4.023438 -14.625 3.148438 -14.804688 2.484375 -15.171875 C 1.816406 -15.535156 1.484375 -16.023438 1.484375 -16.640625 C 1.484375 -17.234375 1.800781 -17.71875 2.4375 -18.09375 C 3.070312 -18.46875 3.90625 -18.65625 4.9375 -18.65625 Z M 8.859375 -13.6875 L 8.859375 0 L 1.484375 0 L 1.484375 -13.6875 Z M 8.859375 -13.6875 "/></g></g></g><g fill="#da2f68" fill-opacity="1"><g transform="translate(130.685551, 186.890789)"><g><path d="M 8.3125 -13.78125 L 8.3125 -0.828125 C 8.550781 -0.796875 8.847656 -0.78125 9.203125 -0.78125 C 10.347656 -0.78125 11.375 -1.066406 12.28125 -1.640625 C 13.195312 -2.222656 13.957031 -3.023438 14.5625 -4.046875 L 15.375 -3.84375 C 14.71875 -2.601562 13.816406 -1.648438 12.671875 -0.984375 C 11.535156 -0.328125 10.257812 0 8.84375 0 C 7 0 5.484375 -0.34375 4.296875 -1.03125 C 3.109375 -1.726562 2.25 -2.601562 1.71875 -3.65625 C 1.1875 -4.707031 0.921875 -5.789062 0.921875 -6.90625 C 0.921875 -8.03125 1.203125 -9.117188 1.765625 -10.171875 C 2.328125 -11.234375 3.164062 -12.097656 4.28125 -12.765625 C 5.394531 -13.441406 6.738281 -13.78125 8.3125 -13.78125 Z M 12.5625 -13.78125 C 13.320312 -13.78125 13.96875 -13.507812 14.5 -12.96875 C 15.039062 -12.425781 15.3125 -11.785156 15.3125 -11.046875 C 15.3125 -10.285156 15.039062 -9.640625 14.5 -9.109375 C 13.96875 -8.578125 13.320312 -8.3125 12.5625 -8.3125 C 11.8125 -8.3125 11.164062 -8.578125 10.625 -9.109375 C 10.09375 -9.640625 9.828125 -10.285156 9.828125 -11.046875 C 9.828125 -11.804688 10.097656 -12.453125 10.640625 -12.984375 C 11.179688 -13.515625 11.820312 -13.78125 12.5625 -13.78125 Z M 12.5625 -13.78125 "/></g></g></g><g fill="#da2f68" fill-opacity="1"><g transform="translate(146.325766, 186.890789)"><g><path d="M 9.078125 -13.6875 L 11.453125 -13.6875 L 11.453125 -12.6875 L 9.15625 -12.6875 L 9.15625 0.125 L 8.484375 0.125 C 7.816406 0.125 7.140625 0.0507812 6.453125 -0.09375 C 5.765625 -0.238281 5.140625 -0.429688 4.578125 -0.671875 C 3.734375 -1.035156 3.050781 -1.5625 2.53125 -2.25 C 2.019531 -2.945312 1.765625 -3.664062 1.765625 -4.40625 L 1.765625 -13.6875 L 9.078125 -16.28125 Z M 9.078125 -13.6875 "/></g></g></g><g fill="#da2f68" fill-opacity="1"><g transform="translate(157.680662, 186.890789)"><g><path d="M 8.796875 0 L 7.875 0 C 7.03125 0 6.195312 -0.0976562 5.375 -0.296875 C 4.550781 -0.503906 3.878906 -0.769531 3.359375 -1.09375 C 2.765625 -1.457031 2.289062 -1.953125 1.9375 -2.578125 C 1.582031 -3.203125 1.40625 -3.878906 1.40625 -4.609375 L 1.40625 -13.6875 L 8.796875 -13.6875 Z M 17.78125 -13.6875 L 17.78125 0 L 10.390625 0 L 10.390625 -13.6875 Z M 17.78125 -13.6875 "/></g></g></g><g fill="#da2f68" fill-opacity="1"><g transform="translate(176.855672, 186.890789)"><g><path d="M 8.96875 -11.59375 L 9.03125 -11.671875 C 9.613281 -12.222656 10.195312 -12.671875 10.78125 -13.015625 C 11.375 -13.359375 12.050781 -13.53125 12.8125 -13.53125 C 13.726562 -13.53125 14.476562 -13.253906 15.0625 -12.703125 C 15.65625 -12.148438 15.953125 -11.46875 15.953125 -10.65625 C 15.953125 -9.863281 15.6875 -9.195312 15.15625 -8.65625 C 14.625 -8.113281 13.957031 -7.84375 13.15625 -7.84375 C 12.3125 -7.84375 11.613281 -8.117188 11.0625 -8.671875 C 10.519531 -9.234375 10.25 -9.925781 10.25 -10.75 C 10.25 -10.988281 10.3125 -11.351562 10.4375 -11.84375 C 10.019531 -11.570312 9.53125 -11.148438 8.96875 -10.578125 L 8.96875 0 L 1.578125 0 L 1.578125 -13.6875 L 8.96875 -13.6875 Z M 8.96875 -11.59375 "/></g></g></g><g fill="#da2f68" fill-opacity="1"><g transform="translate(193.004326, 186.890789)"><g><path d="M 8.28125 -13.78125 L 8.28125 -0.734375 C 8.75 -0.679688 9.160156 -0.65625 9.515625 -0.65625 C 11.191406 -0.65625 12.554688 -1.019531 13.609375 -1.75 C 14.671875 -2.488281 15.488281 -3.578125 16.0625 -5.015625 L 16.078125 -5.09375 L 16.8125 -4.765625 C 16.289062 -3.140625 15.375 -1.914062 14.0625 -1.09375 C 12.757812 -0.28125 11.125 0.125 9.15625 0.125 C 6.769531 0.125 4.90625 -0.382812 3.5625 -1.40625 C 2.570312 -2.164062 1.878906 -3.046875 1.484375 -4.046875 C 1.085938 -5.046875 0.890625 -5.984375 0.890625 -6.859375 C 0.890625 -8.035156 1.179688 -9.148438 1.765625 -10.203125 C 2.347656 -11.265625 3.195312 -12.125 4.3125 -12.78125 C 5.425781 -13.445312 6.75 -13.78125 8.28125 -13.78125 Z M 17.140625 -6.953125 L 9.859375 -6.953125 L 9.859375 -13.78125 C 11.179688 -13.78125 12.398438 -13.484375 13.515625 -12.890625 C 14.628906 -12.304688 15.507812 -11.492188 16.15625 -10.453125 C 16.8125 -9.410156 17.140625 -8.242188 17.140625 -6.953125 Z M 17.140625 -6.953125 "/></g></g></g><g fill="#da2f68" fill-opacity="1"><g transform="translate(210.654044, 186.890789)"><g/></g></g><g fill="#da2f68" fill-opacity="1"><g transform="translate(222.251051, 186.890789)"><g><path d="M 12.25 -18.53125 L 12.25 0 L 1.640625 0 L 1.640625 -18.53125 Z M 24.3125 -12.03125 C 24.3125 -10.695312 23.976562 -9.535156 23.3125 -8.546875 C 22.65625 -7.566406 21.804688 -6.816406 20.765625 -6.296875 C 19.722656 -5.773438 18.65625 -5.515625 17.5625 -5.515625 L 13.8125 -5.515625 L 13.8125 -18.53125 L 17.203125 -18.53125 C 18.503906 -18.53125 19.695312 -18.25 20.78125 -17.6875 C 21.875 -17.132812 22.734375 -16.363281 23.359375 -15.375 C 23.992188 -14.394531 24.3125 -13.28125 24.3125 -12.03125 Z M 24.3125 -12.03125 "/></g></g></g><g fill="#da2f68" fill-opacity="1"><g transform="translate(246.704029, 186.890789)"><g><path d="M 8.28125 -13.78125 L 8.28125 -0.734375 C 8.75 -0.679688 9.160156 -0.65625 9.515625 -0.65625 C 11.191406 -0.65625 12.554688 -1.019531 13.609375 -1.75 C 14.671875 -2.488281 15.488281 -3.578125 16.0625 -5.015625 L 16.078125 -5.09375 L 16.8125 -4.765625 C 16.289062 -3.140625 15.375 -1.914062 14.0625 -1.09375 C 12.757812 -0.28125 11.125 0.125 9.15625 0.125 C 6.769531 0.125 4.90625 -0.382812 3.5625 -1.40625 C 2.570312 -2.164062 1.878906 -3.046875 1.484375 -4.046875 C 1.085938 -5.046875 0.890625 -5.984375 0.890625 -6.859375 C 0.890625 -8.035156 1.179688 -9.148438 1.765625 -10.203125 C 2.347656 -11.265625 3.195312 -12.125 4.3125 -12.78125 C 5.425781 -13.445312 6.75 -13.78125 8.28125 -13.78125 Z M 17.140625 -6.953125 L 9.859375 -6.953125 L 9.859375 -13.78125 C 11.179688 -13.78125 12.398438 -13.484375 13.515625 -12.890625 C 14.628906 -12.304688 15.507812 -11.492188 16.15625 -10.453125 C 16.8125 -9.410156 17.140625 -8.242188 17.140625 -6.953125 Z M 17.140625 -6.953125 "/></g></g></g><g fill="#da2f68" fill-opacity="1"><g transform="translate(264.353747, 186.890789)"><g><path d="M 8.96875 -11.59375 L 9.03125 -11.671875 C 9.613281 -12.222656 10.195312 -12.671875 10.78125 -13.015625 C 11.375 -13.359375 12.050781 -13.53125 12.8125 -13.53125 C 13.726562 -13.53125 14.476562 -13.253906 15.0625 -12.703125 C 15.65625 -12.148438 15.953125 -11.46875 15.953125 -10.65625 C 15.953125 -9.863281 15.6875 -9.195312 15.15625 -8.65625 C 14.625 -8.113281 13.957031 -7.84375 13.15625 -7.84375 C 12.3125 -7.84375 11.613281 -8.117188 11.0625 -8.671875 C 10.519531 -9.234375 10.25 -9.925781 10.25 -10.75 C 10.25 -10.988281 10.3125 -11.351562 10.4375 -11.84375 C 10.019531 -11.570312 9.53125 -11.148438 8.96875 -10.578125 L 8.96875 0 L 1.578125 0 L 1.578125 -13.6875 L 8.96875 -13.6875 Z M 8.96875 -11.59375 "/></g></g></g><g fill="#da2f68" fill-opacity="1"><g transform="translate(280.502401, 186.890789)"><g><path d="M 6.171875 -18.359375 C 6.773438 -18.535156 7.503906 -18.625 8.359375 -18.625 C 7.648438 -18.09375 7.296875 -17.390625 7.296875 -16.515625 C 7.296875 -15.609375 7.597656 -14.90625 8.203125 -14.40625 C 8.804688 -13.90625 9.519531 -13.65625 10.34375 -13.65625 L 12.375 -13.65625 L 12.375 -12.84375 L 9.515625 -12.84375 L 9.515625 0 L 2.125 0 L 2.125 -12.84375 L 0.40625 -12.84375 L 0.40625 -13.65625 L 2.125 -13.65625 C 2.300781 -14.851562 2.742188 -15.851562 3.453125 -16.65625 C 4.171875 -17.46875 5.078125 -18.035156 6.171875 -18.359375 Z M 10.140625 -18.625 C 10.753906 -18.625 11.269531 -18.410156 11.6875 -17.984375 C 12.113281 -17.566406 12.328125 -17.050781 12.328125 -16.4375 C 12.328125 -15.84375 12.113281 -15.332031 11.6875 -14.90625 C 11.269531 -14.476562 10.753906 -14.265625 10.140625 -14.265625 C 9.546875 -14.265625 9.035156 -14.476562 8.609375 -14.90625 C 8.179688 -15.332031 7.96875 -15.84375 7.96875 -16.4375 C 7.96875 -17.050781 8.179688 -17.566406 8.609375 -17.984375 C 9.035156 -18.410156 9.546875 -18.625 10.140625 -18.625 Z M 10.140625 -18.625 "/></g></g></g><g fill="#da2f68" fill-opacity="1"><g transform="translate(292.849946, 186.890789)"><g><path d="M 8.28125 -13.78125 L 8.28125 -0.734375 C 8.75 -0.679688 9.160156 -0.65625 9.515625 -0.65625 C 11.191406 -0.65625 12.554688 -1.019531 13.609375 -1.75 C 14.671875 -2.488281 15.488281 -3.578125 16.0625 -5.015625 L 16.078125 -5.09375 L 16.8125 -4.765625 C 16.289062 -3.140625 15.375 -1.914062 14.0625 -1.09375 C 12.757812 -0.28125 11.125 0.125 9.15625 0.125 C 6.769531 0.125 4.90625 -0.382812 3.5625 -1.40625 C 2.570312 -2.164062 1.878906 -3.046875 1.484375 -4.046875 C 1.085938 -5.046875 0.890625 -5.984375 0.890625 -6.859375 C 0.890625 -8.035156 1.179688 -9.148438 1.765625 -10.203125 C 2.347656 -11.265625 3.195312 -12.125 4.3125 -12.78125 C 5.425781 -13.445312 6.75 -13.78125 8.28125 -13.78125 Z M 17.140625 -6.953125 L 9.859375 -6.953125 L 9.859375 -13.78125 C 11.179688 -13.78125 12.398438 -13.484375 13.515625 -12.890625 C 14.628906 -12.304688 15.507812 -11.492188 16.15625 -10.453125 C 16.8125 -9.410156 17.140625 -8.242188 17.140625 -6.953125 Z M 17.140625 -6.953125 "/></g></g></g><g fill="#da2f68" fill-opacity="1"><g transform="translate(310.499664, 186.890789)"><g><path d="M 8.3125 -13.78125 L 8.3125 -0.828125 C 8.550781 -0.796875 8.847656 -0.78125 9.203125 -0.78125 C 10.347656 -0.78125 11.375 -1.066406 12.28125 -1.640625 C 13.195312 -2.222656 13.957031 -3.023438 14.5625 -4.046875 L 15.375 -3.84375 C 14.71875 -2.601562 13.816406 -1.648438 12.671875 -0.984375 C 11.535156 -0.328125 10.257812 0 8.84375 0 C 7 0 5.484375 -0.34375 4.296875 -1.03125 C 3.109375 -1.726562 2.25 -2.601562 1.71875 -3.65625 C 1.1875 -4.707031 0.921875 -5.789062 0.921875 -6.90625 C 0.921875 -8.03125 1.203125 -9.117188 1.765625 -10.171875 C 2.328125 -11.234375 3.164062 -12.097656 4.28125 -12.765625 C 5.394531 -13.441406 6.738281 -13.78125 8.3125 -13.78125 Z M 12.5625 -13.78125 C 13.320312 -13.78125 13.96875 -13.507812 14.5 -12.96875 C 15.039062 -12.425781 15.3125 -11.785156 15.3125 -11.046875 C 15.3125 -10.285156 15.039062 -9.640625 14.5 -9.109375 C 13.96875 -8.578125 13.320312 -8.3125 12.5625 -8.3125 C 11.8125 -8.3125 11.164062 -8.578125 10.625 -9.109375 C 10.09375 -9.640625 9.828125 -10.285156 9.828125 -11.046875 C 9.828125 -11.804688 10.097656 -12.453125 10.640625 -12.984375 C 11.179688 -13.515625 11.820312 -13.78125 12.5625 -13.78125 Z M 12.5625 -13.78125 "/></g></g></g><g fill="#da2f68" fill-opacity="1"><g transform="translate(326.139891, 186.890789)"><g><path d="M 9.078125 -13.6875 L 11.453125 -13.6875 L 11.453125 -12.6875 L 9.15625 -12.6875 L 9.15625 0.125 L 8.484375 0.125 C 7.816406 0.125 7.140625 0.0507812 6.453125 -0.09375 C 5.765625 -0.238281 5.140625 -0.429688 4.578125 -0.671875 C 3.734375 -1.035156 3.050781 -1.5625 2.53125 -2.25 C 2.019531 -2.945312 1.765625 -3.664062 1.765625 -4.40625 L 1.765625 -13.6875 L 9.078125 -16.28125 Z M 9.078125 -13.6875 "/></g></g></g></svg>